  <svg xmlns="http://www.w3.org/2000/svg" xmlns:xlink="http://www.w3.org/1999/xlink" width="324px" height="488px" viewBox="0 0 324 488" version="1.1">
    <!-- Generator: sketchtool 51.2 (57519) - http://www.bohemiancoding.com/sketch -->
    <title>D702E49A-5F21-41F9-9DC4-ACE9067C3926</title>
    <desc>Created with sketchtool.</desc>
    <defs>
        <rect id="path-1" x="0" y="0" width="324" height="488"/>
    </defs>
    <g id="DeFacto-Desktop" stroke="none" stroke-width="1" fill="none" fill-rule="evenodd">
        <g id="04.Listeleme---Banner-&amp;-Placeholders-1" transform="translate(-710.000000, -310.000000)">
            <g id="ph_ürün" transform="translate(710.000000, 310.000000)">
                <mask id="mask-2" fill="white">
                    <use xlink:href="#path-1"/>
                </mask>
                <use id="Mask" fill="#F8F8F8" xlink:href="#path-1"/>
                <g id="DeFacto-Logo" mask="url(#mask-2)" fill="#E6E6E6">
                    <g transform="translate(87.000000, 227.000000)">
                        <path d="M0.773094845,1.90666667 L13.5645555,1.59733333 C21.5778519,2.27022222 25.7774901,6.67022222 26.1634699,14.7982222 C25.2885823,25.3724444 17.6337591,30.6008889 12.4820373,30.7182222 L0.0384021811,30.872 L1.42881692,28.2346667 L1.89288004,4.70311111 L0.773094845,1.90666667 Z M6.83874587,5.63555556 L6.76243721,26.3688889 C6.76243721,32.3733333 22.3498116,27.9991111 20.5982617,14.4097778 C20.2291408,2.62044444 8.46695968,2.09155556 6.83874587,5.63555556 Z" id="Combined-Shape"/>
                        <path d="M33.1164309,15.6542222 C32.0791656,22.6222222 34.5662954,28.2533333 39.9194365,28.7004444 C43.3657485,29.0106667 46.4172075,27.7022222 49.7339722,24.7386667 L48.6550033,28.3111111 C45.8777231,30.6133333 42.8582072,31.6346667 39.5724983,31.456 C31.6479329,30.1733333 27.0472307,26.744 28.2468738,15.808 C29.5636418,10.4115556 32.9824471,6.50311111 40.6913962,5.86755556 C46.6896117,6.26666667 50.6026487,10.6853333 50.7410691,15.6542222 L33.1164309,15.6542222 Z M33.7339987,13.7111111 L45.0196943,13.7893333 C46.0755932,10.4506667 44.6585592,8.45688889 40.7685922,7.81155556 C36.5077297,7.73866667 34.4917614,10.0551111 33.7339987,13.7111111 Z" id="Combined-Shape"/>
                        <path d="M53.0959898,3.69244444 L53.0187938,27.8453333 L51.3568622,30.8346667 L59.5121282,30.872 L58.1971348,28.5431111 L58.2752181,16.8186667 L63.5307551,16.6613333 C65.3399802,16.8328889 66.538736,17.6808889 67.3177941,18.9911111 L67.626578,12.5466667 C66.5635806,13.336 65.4180635,13.9564444 64.1500975,14.3324444 L58.3533014,14.4097778 L58.3533014,4.47022222 L66.3133592,4.47022222 C67.7889557,4.896 68.9841623,5.83111111 69.9468936,7.18933333 L70.2547902,1.90666667 L52.0125843,1.94755556 L53.0959898,3.69244444" id="Fill-6"/>
                        <path d="M83.3151058,28.3111111 C72.6744845,35.9484444 64.8697059,27.7928889 71.7215135,21.3217778 L83.470385,15.1875556 L83.470385,13.8648889 C84.166036,6.12711111 77.7232783,5.99822222 71.565347,13.944 L71.7215135,8.35377778 C80.9699455,4.98666667 87.5165185,4.98577778 88.1065796,12.392 L87.7223744,27.768 C87.6691358,28.8017778 88.0293837,29.7866667 88.8022307,30.7182222 L83.2379098,30.7182222 L83.3151058,28.3111111 Z M83.2379098,17.9048889 C79.3372951,18.9804444 73.9504362,22.4328889 74.1154759,24.0391111 C74.0835327,29.4231111 79.2272687,29.9795556 82.849268,25.5928889 L83.2379098,17.9048889 Z" id="Combined-Shape"/>
                        <path d="M111.13671,7.65244444 L111.214793,13.944 C105.88561,4.76355556 96.5014194,6.32177778 95.2911286,17.7484444 C95.2103833,29.2906667 104.008949,32.456 112.143807,24.5057778 L111.214793,28.2346667 C98.4242201,37.6595556 89.3008989,24.944 90.1908708,17.9831111 C91.2236996,8.70311111 99.0790549,3.69155556 111.13671,7.65244444" id="Fill-8"/>
                        <path d="M119.754265,0.251555556 L115.076366,1.84266667 L115.156224,6.65866667 L113.530673,6.65866667 L112.952146,8.71555556 L115.076366,8.67822222 L115.134929,25.5386667 C115.065719,31.5991111 118.44637,32.8488889 124.161533,29.7866667 L124.161533,27.3013333 C121.427731,29.2168889 119.883812,28.9564444 119.523564,26.5253333 L119.523564,8.89777778 L123.850975,8.89777778 L124.546626,6.72266667 L119.71611,6.56711111 L119.754265,0.251555556" id="Fill-9"/>
                        <path d="M136.56524,5.94488889 C144.23426,6.04888889 149.518191,11.0444444 149.705413,19.1475556 C148.829638,27.3706667 142.346951,31.4906667 136.56524,31.4168889 C128.070134,31.4142222 122.977862,25.2711111 123.115395,19.0702222 C122.986735,11.7413333 129.724967,5.94844444 136.56524,5.94488889 Z M136.56524,7.81155556 C130.79595,8.33511111 128.525324,12.6417778 128.215653,19.0702222 C128.621153,25.2675556 131.189916,29.3857778 136.56524,29.7866667 C141.368249,29.1964444 144.371793,26.1164444 144.604268,18.9911111 C144.470284,12.7066667 141.953873,8.81333333 136.56524,7.81155556 Z" id="Combined-Shape"/>
                    </g>
                </g>
            </g>
        </g>
    </g>
</svg>